<?xml version="1.0" encoding="UTF-8" standalone="no"?>
<!-- Created with Inkscape (http://www.inkscape.org/) -->

<svg
   width="163.31355mm"
   height="57.224998mm"
   viewBox="0 0 163.31354 57.224998"
   version="1.1"
   id="svg1"
   xml:space="preserve"
   inkscape:version="1.4.3 (0d15f75, 2025-12-25)"
   sodipodi:docname="ZiMO_full_black.svg"
   xmlns:inkscape="http://www.inkscape.org/namespaces/inkscape"
   xmlns:sodipodi="http://sodipodi.sourceforge.net/DTD/sodipodi-0.dtd"
   xmlns="http://www.w3.org/2000/svg"
   xmlns:svg="http://www.w3.org/2000/svg"><sodipodi:namedview
     id="namedview1"
     pagecolor="#505050"
     bordercolor="#eeeeee"
     borderopacity="1"
     inkscape:showpageshadow="0"
     inkscape:pageopacity="0"
     inkscape:pagecheckerboard="0"
     inkscape:deskcolor="#505050"
     inkscape:document-units="mm"
     inkscape:zoom="0.81386718"
     inkscape:cx="269.70003"
     inkscape:cy="49.148069"
     inkscape:window-width="1440"
     inkscape:window-height="890"
     inkscape:window-x="-6"
     inkscape:window-y="-6"
     inkscape:window-maximized="1"
     inkscape:current-layer="layer1" /><defs
     id="defs1" /><g
     inkscape:label="Layer 1"
     inkscape:groupmode="layer"
     id="layer1"><path
       d="M 32.362069,57.154018 C 31.886925,57.084568 29.872438,56.341273 27.29112,55.284013 24.934861,54.319842 19.256784,52.030273 14.67209,50.195007 10.087394,48.361138 6.0473056,46.702302 5.6930334,46.510588 5.3387619,46.318857 4.6635612,45.850662 4.1925876,45.468612 -0.26012407,41.866146 -1.3271076,35.222508 1.7696458,30.380793 c 1.0266939,-1.604646 2.8744649,-3.191228 4.5777489,-3.928946 0.3751116,-0.16255 2.403492,-0.951673 4.5041163,-1.7533 2.100624,-0.800238 4.306833,-1.647711 4.900064,-1.882503 0.593232,-0.234792 1.111443,-0.393173 1.151733,-0.352883 0.04028,0.04029 -0.889151,2.096456 -2.065889,4.570802 -2.188151,4.59859 -2.371539,5.038995 -2.528531,6.053185 -0.100026,0.648809 0.127818,1.970031 0.451521,2.61189 0.363998,0.723827 1.1434,1.583805 1.765805,1.947801 0.329263,0.193113 2.748039,1.21703 5.373816,2.274287 15.033632,6.053181 16.328463,6.592236 16.986995,7.072926 0.784951,0.575176 1.662991,1.85334 1.960303,2.856405 0.439019,1.47684 0.173664,3.405181 -0.646027,4.697235 -1.25315,1.9728 -3.46353,2.960596 -5.839232,2.606326 z M 23.077363,34.768206 c 0,-0.07502 0.946118,-2.114517 2.100626,-4.534682 1.1559,-2.418772 2.188149,-4.640266 2.292349,-4.937577 0.255629,-0.715491 0.243128,-2.388208 -0.02085,-3.152325 -0.1167,-0.338991 -0.426513,-0.907215 -0.687703,-1.264264 C 25.861518,19.651215 26.493652,19.94019 11.33776,13.821705 7.5171817,12.27958 4.0564312,10.819425 3.6479766,10.576297 2.7477093,10.042804 1.9488603,9.1230865 1.4375976,8.0310955 1.0986077,7.307269 1.0569286,7.0599745 1.0569286,5.7595884 c 0,-1.3490129 0.033343,-1.5282329 0.4390197,-2.386821 C 2.097516,2.102947 2.8991425,1.2749228 4.0981102,0.68446885 5.3290314,0.07734384 6.4460299,-0.11854716 7.6102643,0.06761934 c 0.5015402,0.079185 2.143692,0.65713951 3.8942127,1.36707306 4.43465,1.8005341 13.08722,5.2932391 18.102599,7.3063366 4.772253,1.915846 5.469684,2.270118 6.701991,3.40101 2.35209,2.156197 3.531608,4.723626 3.678875,8.006546 0.14865,3.33988 -0.751617,5.861463 -2.935599,8.220499 -1.105883,1.19202 -2.388209,2.003369 -4.483274,2.835563 -5.41689,2.152027 -9.491712,3.681651 -9.491712,3.563559 z"
       fill="#ffffff"
       id="path1"
       style="fill:#ffffff;fill-opacity:1;stroke-width:0.13893" /><path
       id="path10"
       style="font-weight:600;font-size:43.5433px;font-family:Inter;-inkscape-font-specification:'Inter Semi-Bold';fill:#ffffff;stroke-width:0"
       d="m 148.55837,12.261784 c -2.82067,0 -5.35121,0.673478 -7.59075,2.020032 -2.22536,1.346554 -3.97568,3.245698 -5.25136,5.697843 -1.27568,2.452145 -1.91357,5.33696 -1.91357,8.653735 0,3.288426 0.63789,6.158699 1.91357,8.610844 1.27568,2.437972 3.026,4.337115 5.25136,5.697844 2.23954,1.346553 4.77008,2.020031 7.59075,2.020031 2.83485,0 5.35786,-0.673478 7.56905,-2.020031 2.22536,-1.346554 3.97568,-3.245698 5.25136,-5.697844 1.28986,-2.452145 1.93477,-5.322418 1.93477,-8.610844 0,-3.316775 -0.64491,-6.20159 -1.93477,-8.653735 -1.27568,-2.452145 -3.026,-4.351289 -5.25136,-5.697843 -2.21119,-1.346554 -4.7342,-2.020032 -7.56905,-2.020032 z m 0,5.038969 c 1.72926,0 3.27414,0.439462 4.63486,1.318266 1.3749,0.878803 2.45927,2.161607 3.25303,3.848343 0.79376,1.686736 1.19063,3.742235 1.19063,6.166032 0,2.409623 -0.39687,4.457592 -1.19063,6.144328 -0.79376,1.672562 -1.87813,2.948353 -3.25303,3.827157 -1.36072,0.878803 -2.9056,1.318266 -4.63486,1.318266 -1.71508,0 -3.26047,-0.439463 -4.63537,-1.318266 -1.3749,-0.878804 -2.46629,-2.154595 -3.27422,-3.827157 -0.79376,-1.686736 -1.19063,-3.734705 -1.19063,-6.144328 0,-2.423797 0.39687,-4.479296 1.19063,-6.166032 0.80793,-1.686736 1.89932,-2.96954 3.27422,-3.848343 1.3749,-0.878804 2.92029,-1.318266 4.63537,-1.318266 z" /><path
       style="font-weight:600;font-size:43.5433px;font-family:Inter;-inkscape-font-specification:'Inter Semi-Bold';fill:#ffffff;stroke-width:0"
       d="M 96.510297,44.451717 V 12.772265 h 8.079323 l 6.1658,16.647659 q 0.31892,0.914239 0.72289,2.211183 0.42522,1.296944 0.87171,2.721456 0.44649,1.424512 0.8292,2.700195 0.40396,1.275683 0.63784,2.126138 h -1.38199 q 0.23387,-0.850455 0.61658,-2.126138 0.3827,-1.275683 0.82919,-2.700195 0.44649,-1.424512 0.85046,-2.721456 0.42522,-1.296944 0.72288,-2.211183 l 6.0595,-16.647659 h 8.12184 v 31.679452 h -5.52796 V 28.293071 q 0,-1.041808 0.0213,-2.402536 0.0213,-1.381989 0.0638,-2.891547 0.0638,-1.530819 0.085,-3.0829 0.0425,-1.573342 0.0638,-2.997854 h 0.70163 q -0.51028,1.615864 -1.02055,3.274252 -0.51027,1.637126 -0.99929,3.167945 -0.48901,1.509558 -0.91423,2.785241 -0.40397,1.254421 -0.70163,2.147399 l -6.03823,16.158646 h -4.59246 l -6.08075,-16.158646 q -0.29766,-0.892978 -0.74415,-2.147399 -0.42523,-1.275683 -0.91424,-2.785241 -0.48901,-1.530819 -1.02055,-3.167945 -0.53153,-1.658388 -1.06307,-3.274252 h 0.85046 q 0.0425,1.424512 0.0638,2.997854 0.0425,1.552081 0.085,3.0829 0.0425,1.509558 0.0638,2.891547 0.0213,1.360728 0.0213,2.402536 v 16.158646 z"
       id="path8" /><path
       style="font-weight:600;font-size:43.5433px;font-family:Inter;-inkscape-font-specification:'Inter Semi-Bold';fill:#e20612;fill-opacity:1;stroke-width:0"
       d="m 88.813679,18.661667 q -1.381989,0 -2.296229,-0.871717 -0.914239,-0.892978 -0.914239,-2.189922 0,-1.296944 0.914239,-2.16866 0.91424,-0.871717 2.274968,-0.871717 1.381989,0 2.296229,0.871717 0.914239,0.871716 0.914239,2.189922 0,1.296944 -0.914239,2.16866 -0.91424,0.871717 -2.274968,0.871717 z"
       id="path7" /><path
       style="font-weight:600;font-size:43.5433px;font-family:Inter;-inkscape-font-specification:'Inter Semi-Bold';fill:#ffffff;stroke-width:0"
       d="M 86.134746,44.451717 V 21.999703 h 5.357867 v 22.452014 z"
       id="path6" /><path
       style="font-weight:600;font-size:43.5433px;font-family:Inter;-inkscape-font-specification:'Inter Semi-Bold';fill:#ffffff;stroke-width:0"
       d="M 57.601978,44.451717 V 39.986828 L 72.46368,21.425646 q 1.169376,-1.424512 2.381275,-2.849025 1.23316,-1.424512 2.487581,-2.870286 l 0.680364,1.934786 q -1.934785,0 -3.869571,0 -1.934785,0 -3.86957,0 H 58.154773 v -4.868856 h 24.259232 v 4.464889 L 67.849962,35.521939 q -1.211899,1.509558 -2.487582,2.997854 -1.254421,1.488297 -2.572626,2.997854 L 62.10939,39.582862 q 1.913524,0 3.827048,0 1.913524,0 3.827047,0 h 12.820611 v 4.868855 z"
       id="text6" /></g></svg>
