<?xml version="1.0" encoding="UTF-8" standalone="no"?>
<!-- Created with Inkscape (http://www.inkscape.org/) -->

<svg
   width="40.003658mm"
   height="57.224998mm"
   viewBox="0 0 40.003657 57.224998"
   version="1.1"
   id="svg1"
   xml:space="preserve"
   inkscape:version="1.4.3 (0d15f75, 2025-12-25)"
   sodipodi:docname="ZiMO_full_black.svg"
   xmlns:inkscape="http://www.inkscape.org/namespaces/inkscape"
   xmlns:sodipodi="http://sodipodi.sourceforge.net/DTD/sodipodi-0.dtd"
   xmlns="http://www.w3.org/2000/svg"
   xmlns:svg="http://www.w3.org/2000/svg"><sodipodi:namedview
     id="namedview1"
     pagecolor="#505050"
     bordercolor="#eeeeee"
     borderopacity="1"
     inkscape:showpageshadow="0"
     inkscape:pageopacity="0"
     inkscape:pagecheckerboard="0"
     inkscape:deskcolor="#505050"
     inkscape:document-units="mm"
     inkscape:zoom="1.150982"
     inkscape:cx="313.21079"
     inkscape:cy="108.60291"
     inkscape:window-width="1440"
     inkscape:window-height="890"
     inkscape:window-x="-6"
     inkscape:window-y="-6"
     inkscape:window-maximized="1"
     inkscape:current-layer="layer1" /><defs
     id="defs1" /><g
     inkscape:label="Layer 1"
     inkscape:groupmode="layer"
     id="layer1"><path
       d="M 32.362069,57.154018 C 31.886925,57.084568 29.872438,56.341273 27.29112,55.284013 24.934861,54.319842 19.256784,52.030273 14.67209,50.195007 10.087394,48.361138 6.0473056,46.702302 5.6930334,46.510588 5.3387619,46.318857 4.6635612,45.850662 4.1925876,45.468612 -0.26012407,41.866146 -1.3271076,35.222508 1.7696458,30.380793 c 1.0266939,-1.604646 2.8744649,-3.191228 4.5777489,-3.928946 0.3751116,-0.16255 2.403492,-0.951673 4.5041163,-1.7533 2.100624,-0.800238 4.306833,-1.647711 4.900064,-1.882503 0.593232,-0.234792 1.111443,-0.393173 1.151733,-0.352883 0.04028,0.04029 -0.889151,2.096456 -2.065889,4.570802 -2.188151,4.59859 -2.371539,5.038995 -2.528531,6.053185 -0.100026,0.648809 0.127818,1.970031 0.451521,2.61189 0.363998,0.723827 1.1434,1.583805 1.765805,1.947801 0.329263,0.193113 2.748039,1.21703 5.373816,2.274287 15.033632,6.053181 16.328463,6.592236 16.986995,7.072926 0.784951,0.575176 1.662991,1.85334 1.960303,2.856405 0.439019,1.47684 0.173664,3.405181 -0.646027,4.697235 -1.25315,1.9728 -3.46353,2.960596 -5.839232,2.606326 z M 23.077363,34.768206 c 0,-0.07502 0.946118,-2.114517 2.100626,-4.534682 1.1559,-2.418772 2.188149,-4.640266 2.292349,-4.937577 0.255629,-0.715491 0.243128,-2.388208 -0.02085,-3.152325 -0.1167,-0.338991 -0.426513,-0.907215 -0.687703,-1.264264 C 25.861518,19.651215 26.493652,19.94019 11.33776,13.821705 7.5171817,12.27958 4.0564312,10.819425 3.6479766,10.576297 2.7477093,10.042804 1.9488603,9.1230865 1.4375976,8.0310955 1.0986077,7.307269 1.0569286,7.0599745 1.0569286,5.7595884 c 0,-1.3490129 0.033343,-1.5282329 0.4390197,-2.386821 C 2.097516,2.102947 2.8991425,1.2749228 4.0981102,0.68446885 5.3290314,0.07734384 6.4460299,-0.11854716 7.6102643,0.06761934 c 0.5015402,0.079185 2.143692,0.65713951 3.8942127,1.36707306 4.43465,1.8005341 13.08722,5.2932391 18.102599,7.3063366 4.772253,1.915846 5.469684,2.270118 6.701991,3.40101 2.35209,2.156197 3.531608,4.723626 3.678875,8.006546 0.14865,3.33988 -0.751617,5.861463 -2.935599,8.220499 -1.105883,1.19202 -2.388209,2.003369 -4.483274,2.835563 -5.41689,2.152027 -9.491712,3.681651 -9.491712,3.563559 z"
       fill="#ffffff"
       id="path1"
       style="fill:#ffffff;fill-opacity:1;stroke-width:0.13893" /><path
       id="path6"
       style="font-weight:500;font-size:50.8px;font-family:Inter;-inkscape-font-specification:'Inter Medium';fill:#000000;fill-opacity:1;stroke-width:0"
       d="m 159.45745,9.5374023 c -3.27421,0 -6.1929,0.8020187 -8.75605,2.4060547 -2.56316,1.604037 -4.58061,3.844727 -6.05235,6.72207 -1.45521,2.860808 -2.18281,6.184636 -2.18281,9.971485 0,3.753776 0.7276,7.069335 2.18281,9.946679 1.47174,2.860808 3.48919,5.093229 6.05235,6.697266 2.56315,1.604036 5.48184,2.406055 8.75605,2.406055 3.29076,0 6.20944,-0.802019 8.75606,-2.406055 2.56314,-1.604037 4.58059,-3.836458 6.05234,-6.697266 1.47175,-2.877344 2.20762,-6.192903 2.20762,-9.946679 0,-3.786849 -0.73587,-7.110677 -2.20762,-9.971485 -1.47175,-2.877343 -3.4892,-5.118033 -6.05234,-6.72207 -2.54662,-1.604036 -5.4653,-2.4060547 -8.75606,-2.4060547 z m 0,5.0353517 c 2.13321,0 4.06797,0.545703 5.8043,1.637109 1.73632,1.07487 3.11712,2.66237 4.14238,4.7625 1.02526,2.10013 1.53789,4.655013 1.53789,7.664649 0,2.993099 -0.51263,5.539713 -1.53789,7.639843 -1.02526,2.083594 -2.40606,3.671094 -4.14238,4.7625 -1.73633,1.07487 -3.67109,1.612305 -5.8043,1.612305 -2.11667,0 -4.04317,-0.537435 -5.77949,-1.612305 -1.73633,-1.091406 -3.11712,-2.678906 -4.14238,-4.7625 -1.02526,-2.10013 -1.5379,-4.646744 -1.5379,-7.639843 0,-3.009636 0.51264,-5.564519 1.5379,-7.664649 1.02526,-2.10013 2.40605,-3.68763 4.14238,-4.7625 1.73632,-1.091406 3.66282,-1.637109 5.77949,-1.637109 z" /><path
       style="font-weight:500;font-size:50.8px;font-family:Inter;-inkscape-font-specification:'Inter Medium';fill:#000000;fill-opacity:1;stroke-width:0"
       d="M 99.653204,47.091492 V 10.132508 h 7.763866 L 115.70184,31.787 q 0.32246,0.917773 0.79375,2.257226 0.47129,1.339453 0.96738,2.80293 0.49609,1.463476 0.91777,2.778125 0.44649,1.314648 0.71934,2.158008 h -1.31465 q 0.27285,-0.84336 0.69453,-2.158008 0.42168,-1.314649 0.91777,-2.778125 0.4961,-1.463477 0.96739,-2.80293 0.47129,-1.339453 0.76894,-2.257226 l 8.16074,-21.654492 h 7.78868 v 36.958984 h -5.40743 V 26.950086 q 0,-1.21543 0,-2.678906 0.0248,-1.488282 0.0744,-3.100586 0.0496,-1.612305 0.0744,-3.249414 0.0496,-1.63711 0.0744,-3.150196 h 0.71933 q -0.59531,1.810743 -1.21543,3.59668 -0.59531,1.761133 -1.14101,3.373437 -0.54571,1.5875 -1.01699,2.926954 -0.44649,1.314648 -0.81856,2.282031 l -7.78867,20.141406 h -4.51445 l -7.86309,-20.141406 q -0.37207,-0.967383 -0.84336,-2.282031 -0.47129,-1.339454 -1.0418,-2.926954 -0.5457,-1.612304 -1.19062,-3.373437 -0.62012,-1.785937 -1.26504,-3.59668 h 0.94258 q 0.0248,1.513086 0.0496,3.150196 0.0496,1.637109 0.0744,3.249414 0.0496,1.612304 0.0744,3.100586 0.0248,1.463476 0.0248,2.678906 v 20.141406 z"
       id="path4" /><path
       style="font-weight:500;font-size:50.8px;font-family:Inter;-inkscape-font-specification:'Inter Medium';fill:#d22828;fill-opacity:1;stroke-width:0"
       d="m 90.69871,16.383289 q -1.389063,0 -2.356445,-0.917773 -0.942579,-0.942578 -0.942579,-2.282032 0,-1.364257 0.942579,-2.282031 0.967382,-0.9425779 2.356445,-0.9425779 1.389062,0 2.356445,0.9425779 0.967383,0.917774 0.967383,2.282031 0,1.339454 -0.967383,2.282032 -0.967383,0.917773 -2.356445,0.917773 z"
       id="path3" /><path
       style="font-weight:500;font-size:50.8px;font-family:Inter;-inkscape-font-specification:'Inter Medium';fill:#000000;fill-opacity:1;stroke-width:0"
       d="m 88.094218,47.091492 v -26.19375 h 5.233789 v 26.19375 z"
       id="path2" /><path
       style="font-weight:500;font-size:50.8px;font-family:Inter;-inkscape-font-specification:'Inter Medium';fill:#000000;fill-opacity:1;stroke-width:0"
       d="M 55.054374,47.091492 V 42.601843 L 73.385038,19.359851 q 1.240234,-1.587499 2.554882,-3.150195 1.339454,-1.5875 2.703711,-3.175 l 0.669727,1.934766 q -2.182813,0 -4.34082,0 -2.158008,0 -4.340821,0 H 55.748905 v -4.836914 h 27.806054 v 4.489648 L 65.596366,37.442468 q -1.339453,1.686719 -2.728516,3.373438 -1.364257,1.686719 -2.852539,3.373437 l -0.669726,-1.934765 q 2.133203,0 4.241601,0 2.133203,0 4.266406,0 h 15.899805 v 4.836914 z"
       id="text1" /></g></svg>
